solid OpenSCAD_Model
  facet normal 1 -0 0
    outer loop
      vertex 20 0 18
      vertex 20 20 0
      vertex 20 20 18
    endloop
  endfacet
  facet normal 1 0 0
    outer loop
      vertex 20 20 0
      vertex 20 0 18
      vertex 20 0 0
    endloop
  endfacet
  facet normal 0 0 1
    outer loop
      vertex 20 20 18
      vertex 13.75 10 18
      vertex 20 0 18
    endloop
  endfacet
  facet normal 0 0 1
    outer loop
      vertex 20 20 18
      vertex 13.2476 11.875 18
      vertex 13.75 10 18
    endloop
  endfacet
  facet normal 0 0 1
    outer loop
      vertex 20 20 18
      vertex 11.875 13.2476 18
      vertex 13.2476 11.875 18
    endloop
  endfacet
  facet normal 0 0 1
    outer loop
      vertex 20 20 18
      vertex 10 13.75 18
      vertex 11.875 13.2476 18
    endloop
  endfacet
  facet normal -0 0 1
    outer loop
      vertex 0 20 18
      vertex 10 13.75 18
      vertex 20 20 18
    endloop
  endfacet
  facet normal 0 0 1
    outer loop
      vertex 6.7524 11.875 18
      vertex 0 20 18
      vertex 6.25 10 18
    endloop
  endfacet
  facet normal 0 0 1
    outer loop
      vertex 8.125 13.2476 18
      vertex 0 20 18
      vertex 6.7524 11.875 18
    endloop
  endfacet
  facet normal 0 0 1
    outer loop
      vertex 10 13.75 18
      vertex 0 20 18
      vertex 8.125 13.2476 18
    endloop
  endfacet
  facet normal -0 0 1
    outer loop
      vertex 13.2476 8.125 18
      vertex 20 0 18
      vertex 13.75 10 18
    endloop
  endfacet
  facet normal -0 0 1
    outer loop
      vertex 11.875 6.7524 18
      vertex 20 0 18
      vertex 13.2476 8.125 18
    endloop
  endfacet
  facet normal -0 0 1
    outer loop
      vertex 10 6.25 18
      vertex 20 0 18
      vertex 11.875 6.7524 18
    endloop
  endfacet
  facet normal 0 0 1
    outer loop
      vertex 0 0 18
      vertex 10 6.25 18
      vertex 8.125 6.7524 18
    endloop
  endfacet
  facet normal 0 0 1
    outer loop
      vertex 0 0 18
      vertex 6.25 10 18
      vertex 0 20 18
    endloop
  endfacet
  facet normal 0 0 1
    outer loop
      vertex 10 6.25 18
      vertex 0 0 18
      vertex 20 0 18
    endloop
  endfacet
  facet normal 0 0 1
    outer loop
      vertex 6.7524 8.125 18
      vertex 0 0 18
      vertex 8.125 6.7524 18
    endloop
  endfacet
  facet normal 0 0 1
    outer loop
      vertex 6.25 10 18
      vertex 0 0 18
      vertex 6.7524 8.125 18
    endloop
  endfacet
  facet normal 0 0 -1
    outer loop
      vertex 0 0 0
      vertex 20 20 0
      vertex 20 0 0
    endloop
  endfacet
  facet normal -0 0 -1
    outer loop
      vertex 20 20 0
      vertex 0 0 0
      vertex 0 20 0
    endloop
  endfacet
  facet normal -1 0 0
    outer loop
      vertex 0 0 0
      vertex 0 20 18
      vertex 0 20 0
    endloop
  endfacet
  facet normal -1 -0 0
    outer loop
      vertex 0 20 18
      vertex 0 0 0
      vertex 0 0 18
    endloop
  endfacet
  facet normal 0 1 -0
    outer loop
      vertex 20 20 0
      vertex 0 20 18
      vertex 20 20 18
    endloop
  endfacet
  facet normal 0 1 0
    outer loop
      vertex 0 20 18
      vertex 20 20 0
      vertex 0 20 0
    endloop
  endfacet
  facet normal 0 -1 0
    outer loop
      vertex 0 0 0
      vertex 20 0 18
      vertex 0 0 18
    endloop
  endfacet
  facet normal 0 -1 -0
    outer loop
      vertex 20 0 18
      vertex 0 0 0
      vertex 20 0 0
    endloop
  endfacet
  facet normal -0.707107 -0.707107 0
    outer loop
      vertex 13.2476 11.875 3
      vertex 11.875 13.2476 18
      vertex 11.875 13.2476 3
    endloop
  endfacet
  facet normal -0.707107 -0.707107 0
    outer loop
      vertex 11.875 13.2476 18
      vertex 13.2476 11.875 3
      vertex 13.2476 11.875 18
    endloop
  endfacet
  facet normal -0.965926 -0.258817 0
    outer loop
      vertex 13.75 10 3
      vertex 13.2476 11.875 18
      vertex 13.2476 11.875 3
    endloop
  endfacet
  facet normal -0.965926 -0.258817 0
    outer loop
      vertex 13.2476 11.875 18
      vertex 13.75 10 3
      vertex 13.75 10 18
    endloop
  endfacet
  facet normal -0.258817 -0.965926 0
    outer loop
      vertex 10 13.75 3
      vertex 11.875 13.2476 18
      vertex 10 13.75 18
    endloop
  endfacet
  facet normal -0.258817 -0.965926 -0
    outer loop
      vertex 11.875 13.2476 18
      vertex 10 13.75 3
      vertex 11.875 13.2476 3
    endloop
  endfacet
  facet normal 0.258817 -0.965926 0
    outer loop
      vertex 8.125 13.2476 3
      vertex 10 13.75 18
      vertex 8.125 13.2476 18
    endloop
  endfacet
  facet normal 0.258817 -0.965926 0
    outer loop
      vertex 10 13.75 18
      vertex 8.125 13.2476 3
      vertex 10 13.75 3
    endloop
  endfacet
  facet normal -0.707107 0.707107 0
    outer loop
      vertex 11.875 6.7524 3
      vertex 13.2476 8.125 18
      vertex 13.2476 8.125 3
    endloop
  endfacet
  facet normal -0.707107 0.707107 0
    outer loop
      vertex 13.2476 8.125 18
      vertex 11.875 6.7524 3
      vertex 11.875 6.7524 18
    endloop
  endfacet
  facet normal 0.707107 -0.707107 0
    outer loop
      vertex 6.7524 11.875 3
      vertex 8.125 13.2476 18
      vertex 6.7524 11.875 18
    endloop
  endfacet
  facet normal 0.707107 -0.707107 0
    outer loop
      vertex 8.125 13.2476 18
      vertex 6.7524 11.875 3
      vertex 8.125 13.2476 3
    endloop
  endfacet
  facet normal 0.965926 -0.258817 0
    outer loop
      vertex 6.25 10 18
      vertex 6.7524 11.875 3
      vertex 6.7524 11.875 18
    endloop
  endfacet
  facet normal 0.965926 -0.258817 0
    outer loop
      vertex 6.7524 11.875 3
      vertex 6.25 10 18
      vertex 6.25 10 3
    endloop
  endfacet
  facet normal 0.707107 0.707107 0
    outer loop
      vertex 8.125 6.7524 18
      vertex 6.7524 8.125 3
      vertex 6.7524 8.125 18
    endloop
  endfacet
  facet normal 0.707107 0.707107 0
    outer loop
      vertex 6.7524 8.125 3
      vertex 8.125 6.7524 18
      vertex 8.125 6.7524 3
    endloop
  endfacet
  facet normal -0.965926 0.258817 0
    outer loop
      vertex 13.2476 8.125 3
      vertex 13.75 10 18
      vertex 13.75 10 3
    endloop
  endfacet
  facet normal -0.965926 0.258817 0
    outer loop
      vertex 13.75 10 18
      vertex 13.2476 8.125 3
      vertex 13.2476 8.125 18
    endloop
  endfacet
  facet normal 0.965926 0.258817 0
    outer loop
      vertex 6.7524 8.125 18
      vertex 6.25 10 3
      vertex 6.25 10 18
    endloop
  endfacet
  facet normal 0.965926 0.258817 0
    outer loop
      vertex 6.25 10 3
      vertex 6.7524 8.125 18
      vertex 6.7524 8.125 3
    endloop
  endfacet
  facet normal -0.258817 0.965926 0
    outer loop
      vertex 11.875 6.7524 3
      vertex 10 6.25 18
      vertex 11.875 6.7524 18
    endloop
  endfacet
  facet normal -0.258817 0.965926 0
    outer loop
      vertex 10 6.25 18
      vertex 11.875 6.7524 3
      vertex 10 6.25 3
    endloop
  endfacet
  facet normal 0 0 1
    outer loop
      vertex 13.2476 11.875 3
      vertex 13.2476 8.125 3
      vertex 13.75 10 3
    endloop
  endfacet
  facet normal 0 0 1
    outer loop
      vertex 11.875 13.2476 3
      vertex 13.2476 8.125 3
      vertex 13.2476 11.875 3
    endloop
  endfacet
  facet normal 0 0 1
    outer loop
      vertex 11.875 13.2476 3
      vertex 11.875 6.7524 3
      vertex 13.2476 8.125 3
    endloop
  endfacet
  facet normal 0 0 1
    outer loop
      vertex 10 13.75 3
      vertex 11.875 6.7524 3
      vertex 11.875 13.2476 3
    endloop
  endfacet
  facet normal 0 0 1
    outer loop
      vertex 10 13.75 3
      vertex 10 6.25 3
      vertex 11.875 6.7524 3
    endloop
  endfacet
  facet normal -0 0 1
    outer loop
      vertex 8.125 13.2476 3
      vertex 10 6.25 3
      vertex 10 13.75 3
    endloop
  endfacet
  facet normal 0 0 1
    outer loop
      vertex 8.125 13.2476 3
      vertex 8.125 6.7524 3
      vertex 10 6.25 3
    endloop
  endfacet
  facet normal -0 0 1
    outer loop
      vertex 6.7524 11.875 3
      vertex 8.125 6.7524 3
      vertex 8.125 13.2476 3
    endloop
  endfacet
  facet normal 0 0 1
    outer loop
      vertex 6.7524 11.875 3
      vertex 6.7524 8.125 3
      vertex 8.125 6.7524 3
    endloop
  endfacet
  facet normal 0 -0 1
    outer loop
      vertex 6.7524 8.125 3
      vertex 6.7524 11.875 3
      vertex 6.25 10 3
    endloop
  endfacet
  facet normal 0.258817 0.965926 -0
    outer loop
      vertex 10 6.25 3
      vertex 8.125 6.7524 18
      vertex 10 6.25 18
    endloop
  endfacet
  facet normal 0.258817 0.965926 0
    outer loop
      vertex 8.125 6.7524 18
      vertex 10 6.25 3
      vertex 8.125 6.7524 3
    endloop
  endfacet
endsolid OpenSCAD_Model
