solid OpenSCAD_Model
  facet normal 1 -0 0
    outer loop
      vertex 15 0 20
      vertex 15 5 0
      vertex 15 5 20
    endloop
  endfacet
  facet normal 1 0 0
    outer loop
      vertex 15 5 0
      vertex 15 0 20
      vertex 15 0 0
    endloop
  endfacet
  facet normal 0 0 1
    outer loop
      vertex 5 15 20
      vertex 0 10 20
      vertex 5 5 20
    endloop
  endfacet
  facet normal -0 0 1
    outer loop
      vertex -10 15 20
      vertex 0 10 20
      vertex 5 15 20
    endloop
  endfacet
  facet normal 0 0 1
    outer loop
      vertex 0 10 20
      vertex -10 15 20
      vertex -10 10 20
    endloop
  endfacet
  facet normal -0 0 1
    outer loop
      vertex 5 5 20
      vertex 15 0 20
      vertex 15 5 20
    endloop
  endfacet
  facet normal 0 0 1
    outer loop
      vertex 5 5 20
      vertex 0 0 20
      vertex 15 0 20
    endloop
  endfacet
  facet normal 0 0 1
    outer loop
      vertex 0 0 20
      vertex 5 5 20
      vertex 0 10 20
    endloop
  endfacet
  facet normal 0 0 -1
    outer loop
      vertex 15 0 0
      vertex 5 5 0
      vertex 15 5 0
    endloop
  endfacet
  facet normal 0 0 -1
    outer loop
      vertex 0 0 0
      vertex 5 5 0
      vertex 15 0 0
    endloop
  endfacet
  facet normal 0 0 -1
    outer loop
      vertex 0 10 0
      vertex 5 5 0
      vertex 0 0 0
    endloop
  endfacet
  facet normal 0 0 -1
    outer loop
      vertex 5 5 0
      vertex 0 10 0
      vertex 5 15 0
    endloop
  endfacet
  facet normal 0 0 -1
    outer loop
      vertex -10 15 0
      vertex 0 10 0
      vertex -10 10 0
    endloop
  endfacet
  facet normal 0 0 -1
    outer loop
      vertex 0 10 0
      vertex -10 15 0
      vertex 5 15 0
    endloop
  endfacet
  facet normal -1 0 0
    outer loop
      vertex 0 0 0
      vertex 0 10 20
      vertex 0 10 0
    endloop
  endfacet
  facet normal -1 -0 0
    outer loop
      vertex 0 10 20
      vertex 0 0 0
      vertex 0 0 20
    endloop
  endfacet
  facet normal 0 1 0
    outer loop
      vertex 15 5 20
      vertex 10 5 16
      vertex 5 5 20
    endloop
  endfacet
  facet normal 0 1 0
    outer loop
      vertex 15 5 20
      vertex 10.3827 5 15.9239
      vertex 10 5 16
    endloop
  endfacet
  facet normal 0 1 0
    outer loop
      vertex 15 5 20
      vertex 10.7071 5 15.7071
      vertex 10.3827 5 15.9239
    endloop
  endfacet
  facet normal 0 1 0
    outer loop
      vertex 15 5 20
      vertex 10.9239 5 15.3827
      vertex 10.7071 5 15.7071
    endloop
  endfacet
  facet normal 0 1 0
    outer loop
      vertex 15 5 20
      vertex 11 5 15
      vertex 10.9239 5 15.3827
    endloop
  endfacet
  facet normal 0 1 0
    outer loop
      vertex 15 5 20
      vertex 10.9239 5 14.6173
      vertex 11 5 15
    endloop
  endfacet
  facet normal 0 1 0
    outer loop
      vertex 10.9239 5 5.38268
      vertex 10.9239 5 14.6173
      vertex 15 5 20
    endloop
  endfacet
  facet normal 0 1 0
    outer loop
      vertex 10.3827 5 14.0761
      vertex 10 5 6
      vertex 10 5 14
    endloop
  endfacet
  facet normal 0 1 0
    outer loop
      vertex 10.3827 5 5.92388
      vertex 10.3827 5 14.0761
      vertex 10.7071 5 14.2929
    endloop
  endfacet
  facet normal 0 1 0
    outer loop
      vertex 10.9239 5 14.6173
      vertex 10.9239 5 5.38268
      vertex 10.7071 5 14.2929
    endloop
  endfacet
  facet normal 0 1 0
    outer loop
      vertex 10.3827 5 14.0761
      vertex 10.3827 5 5.92388
      vertex 10 5 6
    endloop
  endfacet
  facet normal 0 1 0
    outer loop
      vertex 10.7071 5 14.2929
      vertex 10.7071 5 5.70711
      vertex 10.3827 5 5.92388
    endloop
  endfacet
  facet normal 0 1 0
    outer loop
      vertex 10.7071 5 14.2929
      vertex 10.9239 5 5.38268
      vertex 10.7071 5 5.70711
    endloop
  endfacet
  facet normal 0 1 -0
    outer loop
      vertex 15 5 0
      vertex 10.9239 5 5.38268
      vertex 15 5 20
    endloop
  endfacet
  facet normal 0 1 0
    outer loop
      vertex 10.9239 5 5.38268
      vertex 15 5 0
      vertex 11 5 5
    endloop
  endfacet
  facet normal 0 1 0
    outer loop
      vertex 10.3827 5 4.07612
      vertex 15 5 0
      vertex 10 5 4
    endloop
  endfacet
  facet normal 0 1 0
    outer loop
      vertex 10.7071 5 4.29289
      vertex 15 5 0
      vertex 10.3827 5 4.07612
    endloop
  endfacet
  facet normal 0 1 0
    outer loop
      vertex 10.9239 5 4.61732
      vertex 15 5 0
      vertex 10.7071 5 4.29289
    endloop
  endfacet
  facet normal 0 1 0
    outer loop
      vertex 11 5 5
      vertex 15 5 0
      vertex 10.9239 5 4.61732
    endloop
  endfacet
  facet normal 0 1 -0
    outer loop
      vertex 9.61732 5 15.9239
      vertex 5 5 20
      vertex 10 5 16
    endloop
  endfacet
  facet normal 0 1 -0
    outer loop
      vertex 9.29289 5 15.7071
      vertex 5 5 20
      vertex 9.61732 5 15.9239
    endloop
  endfacet
  facet normal 0 1 -0
    outer loop
      vertex 9.07612 5 15.3827
      vertex 5 5 20
      vertex 9.29289 5 15.7071
    endloop
  endfacet
  facet normal 0 1 -0
    outer loop
      vertex 9 5 15
      vertex 5 5 20
      vertex 9.07612 5 15.3827
    endloop
  endfacet
  facet normal 0 1 0
    outer loop
      vertex 9.07612 5 14.6173
      vertex 5 5 20
      vertex 9 5 15
    endloop
  endfacet
  facet normal 0 1 0
    outer loop
      vertex 9.07612 5 5.38268
      vertex 9.07612 5 14.6173
      vertex 9.29289 5 14.2929
    endloop
  endfacet
  facet normal 0 1 -0
    outer loop
      vertex 10 5 6
      vertex 9.61732 5 14.0761
      vertex 10 5 14
    endloop
  endfacet
  facet normal 0 1 0
    outer loop
      vertex 9.61732 5 5.92388
      vertex 9.61732 5 14.0761
      vertex 10 5 6
    endloop
  endfacet
  facet normal 0 1 0
    outer loop
      vertex 9.61732 5 14.0761
      vertex 9.61732 5 5.92388
      vertex 9.29289 5 14.2929
    endloop
  endfacet
  facet normal 0 1 0
    outer loop
      vertex 9.29289 5 5.70711
      vertex 9.29289 5 14.2929
      vertex 9.61732 5 5.92388
    endloop
  endfacet
  facet normal 0 1 0
    outer loop
      vertex 9.07612 5 5.38268
      vertex 9.29289 5 14.2929
      vertex 9.29289 5 5.70711
    endloop
  endfacet
  facet normal 0 1 0
    outer loop
      vertex 9.07612 5 14.6173
      vertex 9.07612 5 5.38268
      vertex 5 5 20
    endloop
  endfacet
  facet normal 0 1 0
    outer loop
      vertex 5 5 0
      vertex 9.07612 5 5.38268
      vertex 9 5 5
    endloop
  endfacet
  facet normal 0 1 0
    outer loop
      vertex 5 5 0
      vertex 9 5 5
      vertex 9.07612 5 4.61732
    endloop
  endfacet
  facet normal 0 1 0
    outer loop
      vertex 5 5 0
      vertex 10 5 4
      vertex 15 5 0
    endloop
  endfacet
  facet normal 0 1 0
    outer loop
      vertex 10 5 4
      vertex 5 5 0
      vertex 9.61732 5 4.07612
    endloop
  endfacet
  facet normal 0 1 0
    outer loop
      vertex 9.07612 5 5.38268
      vertex 5 5 0
      vertex 5 5 20
    endloop
  endfacet
  facet normal 0 1 0
    outer loop
      vertex 9.29289 5 4.29289
      vertex 5 5 0
      vertex 9.07612 5 4.61732
    endloop
  endfacet
  facet normal 0 1 0
    outer loop
      vertex 9.61732 5 4.07612
      vertex 5 5 0
      vertex 9.29289 5 4.29289
    endloop
  endfacet
  facet normal 0 -1 0
    outer loop
      vertex 9.61732 0 15.9239
      vertex 15 0 20
      vertex 0 0 20
    endloop
  endfacet
  facet normal 0 -1 0
    outer loop
      vertex 15 0 20
      vertex 9.61732 0 15.9239
      vertex 10 0 16
    endloop
  endfacet
  facet normal 0 -1 0
    outer loop
      vertex 0 0 20
      vertex 9.29289 0 15.7071
      vertex 9.61732 0 15.9239
    endloop
  endfacet
  facet normal 0 -1 0
    outer loop
      vertex 0 0 20
      vertex 9.07612 0 15.3827
      vertex 9.29289 0 15.7071
    endloop
  endfacet
  facet normal 0 -1 0
    outer loop
      vertex 0 0 20
      vertex 9 0 15
      vertex 9.07612 0 15.3827
    endloop
  endfacet
  facet normal 0 -1 0
    outer loop
      vertex 0 0 20
      vertex 9.07612 0 14.6173
      vertex 9 0 15
    endloop
  endfacet
  facet normal 0 -1 0
    outer loop
      vertex 9.07612 0 5.38268
      vertex 9.07612 0 14.6173
      vertex 0 0 20
    endloop
  endfacet
  facet normal 0 -1 0
    outer loop
      vertex 9.07612 0 14.6173
      vertex 9.07612 0 5.38268
      vertex 9.29289 0 14.2929
    endloop
  endfacet
  facet normal 0 -1 0
    outer loop
      vertex 9.61732 0 14.0761
      vertex 10 0 6
      vertex 10 0 14
    endloop
  endfacet
  facet normal -0 -1 0
    outer loop
      vertex 9.29289 0 5.70711
      vertex 9.29289 0 14.2929
      vertex 9.07612 0 5.38268
    endloop
  endfacet
  facet normal 0 -1 0
    outer loop
      vertex 9.61732 0 14.0761
      vertex 9.61732 0 5.92388
      vertex 10 0 6
    endloop
  endfacet
  facet normal 0 -1 -0
    outer loop
      vertex 9.61732 0 14.0761
      vertex 9.29289 0 5.70711
      vertex 9.61732 0 5.92388
    endloop
  endfacet
  facet normal 0 -1 0
    outer loop
      vertex 9.29289 0 14.2929
      vertex 9.29289 0 5.70711
      vertex 9.61732 0 14.0761
    endloop
  endfacet
  facet normal 0 -1 0
    outer loop
      vertex 0 0 0
      vertex 9.07612 0 5.38268
      vertex 0 0 20
    endloop
  endfacet
  facet normal 0 -1 0
    outer loop
      vertex 9.07612 0 5.38268
      vertex 0 0 0
      vertex 9 0 5
    endloop
  endfacet
  facet normal 0 -1 0
    outer loop
      vertex 15 0 0
      vertex 9.61732 0 4.07612
      vertex 0 0 0
    endloop
  endfacet
  facet normal 0 -1 -0
    outer loop
      vertex 9.29289 0 4.29289
      vertex 0 0 0
      vertex 9.61732 0 4.07612
    endloop
  endfacet
  facet normal 0 -1 -0
    outer loop
      vertex 9.07612 0 4.61732
      vertex 0 0 0
      vertex 9.29289 0 4.29289
    endloop
  endfacet
  facet normal 0 -1 -0
    outer loop
      vertex 9 0 5
      vertex 0 0 0
      vertex 9.07612 0 4.61732
    endloop
  endfacet
  facet normal 0 -1 0
    outer loop
      vertex 10.3827 0 15.9239
      vertex 15 0 20
      vertex 10 0 16
    endloop
  endfacet
  facet normal 0 -1 0
    outer loop
      vertex 10.7071 0 15.7071
      vertex 15 0 20
      vertex 10.3827 0 15.9239
    endloop
  endfacet
  facet normal 0 -1 0
    outer loop
      vertex 10.9239 0 15.3827
      vertex 15 0 20
      vertex 10.7071 0 15.7071
    endloop
  endfacet
  facet normal 0 -1 0
    outer loop
      vertex 11 0 15
      vertex 15 0 20
      vertex 10.9239 0 15.3827
    endloop
  endfacet
  facet normal 0 -1 0
    outer loop
      vertex 10.9239 0 14.6173
      vertex 15 0 20
      vertex 11 0 15
    endloop
  endfacet
  facet normal 0 -1 0
    outer loop
      vertex 10.9239 0 5.38268
      vertex 10.9239 0 14.6173
      vertex 10.7071 0 14.2929
    endloop
  endfacet
  facet normal 0 -1 0
    outer loop
      vertex 10 0 6
      vertex 10.3827 0 14.0761
      vertex 10 0 14
    endloop
  endfacet
  facet normal 0 -1 0
    outer loop
      vertex 10.3827 0 5.92388
      vertex 10.3827 0 14.0761
      vertex 10 0 6
    endloop
  endfacet
  facet normal 0 -1 0
    outer loop
      vertex 10.3827 0 14.0761
      vertex 10.3827 0 5.92388
      vertex 10.7071 0 14.2929
    endloop
  endfacet
  facet normal 0 -1 0
    outer loop
      vertex 10.7071 0 5.70711
      vertex 10.7071 0 14.2929
      vertex 10.3827 0 5.92388
    endloop
  endfacet
  facet normal 0 -1 0
    outer loop
      vertex 10.9239 0 5.38268
      vertex 10.7071 0 14.2929
      vertex 10.7071 0 5.70711
    endloop
  endfacet
  facet normal 0 -1 0
    outer loop
      vertex 10.9239 0 14.6173
      vertex 10.9239 0 5.38268
      vertex 15 0 20
    endloop
  endfacet
  facet normal 0 -1 0
    outer loop
      vertex 15 0 0
      vertex 10.9239 0 5.38268
      vertex 11 0 5
    endloop
  endfacet
  facet normal 0 -1 0
    outer loop
      vertex 15 0 0
      vertex 11 0 5
      vertex 10.9239 0 4.61732
    endloop
  endfacet
  facet normal 0 -1 0
    outer loop
      vertex 9.61732 0 4.07612
      vertex 15 0 0
      vertex 10 0 4
    endloop
  endfacet
  facet normal 0 -1 0
    outer loop
      vertex 10.9239 0 5.38268
      vertex 15 0 0
      vertex 15 0 20
    endloop
  endfacet
  facet normal 0 -1 0
    outer loop
      vertex 10.7071 0 4.29289
      vertex 15 0 0
      vertex 10.9239 0 4.61732
    endloop
  endfacet
  facet normal 0 -1 0
    outer loop
      vertex 10.3827 0 4.07612
      vertex 15 0 0
      vertex 10.7071 0 4.29289
    endloop
  endfacet
  facet normal 0 -1 0
    outer loop
      vertex 10 0 4
      vertex 15 0 0
      vertex 10.3827 0 4.07612
    endloop
  endfacet
  facet normal -0.980795 0 0.195042
    outer loop
      vertex 10.9239 0 4.61732
      vertex 11 5 5
      vertex 10.9239 5 4.61732
    endloop
  endfacet
  facet normal -0.980795 0 0.195042
    outer loop
      vertex 11 5 5
      vertex 10.9239 0 4.61732
      vertex 11 0 5
    endloop
  endfacet
  facet normal -0.831443 0 0.555611
    outer loop
      vertex 10.7071 0 4.29289
      vertex 10.9239 5 4.61732
      vertex 10.7071 5 4.29289
    endloop
  endfacet
  facet normal -0.831443 0 0.555611
    outer loop
      vertex 10.9239 5 4.61732
      vertex 10.7071 0 4.29289
      vertex 10.9239 0 4.61732
    endloop
  endfacet
  facet normal -0.555593 0 -0.831454
    outer loop
      vertex 10.3827 0 5.92388
      vertex 10.7071 5 5.70711
      vertex 10.7071 0 5.70711
    endloop
  endfacet
  facet normal -0.555593 0 -0.831454
    outer loop
      vertex 10.7071 5 5.70711
      vertex 10.3827 0 5.92388
      vertex 10.3827 5 5.92388
    endloop
  endfacet
  facet normal 0.555557 0 0.831478
    outer loop
      vertex 9.29289 5 4.29289
      vertex 9.61732 0 4.07612
      vertex 9.61732 5 4.07612
    endloop
  endfacet
  facet normal 0.555557 0 0.831478
    outer loop
      vertex 9.61732 0 4.07612
      vertex 9.29289 5 4.29289
      vertex 9.29289 0 4.29289
    endloop
  endfacet
  facet normal -0.195081 0 -0.980787
    outer loop
      vertex 10 0 6
      vertex 10.3827 5 5.92388
      vertex 10.3827 0 5.92388
    endloop
  endfacet
  facet normal -0.195081 0 -0.980787
    outer loop
      vertex 10.3827 5 5.92388
      vertex 10 0 6
      vertex 10 5 6
    endloop
  endfacet
  facet normal 0.195091 0 0.980785
    outer loop
      vertex 9.61732 5 4.07612
      vertex 10 0 4
      vertex 10 5 4
    endloop
  endfacet
  facet normal 0.195091 0 0.980785
    outer loop
      vertex 10 0 4
      vertex 9.61732 5 4.07612
      vertex 9.61732 0 4.07612
    endloop
  endfacet
  facet normal -0.831443 0 -0.555611
    outer loop
      vertex 10.9239 0 5.38268
      vertex 10.7071 5 5.70711
      vertex 10.9239 5 5.38268
    endloop
  endfacet
  facet normal -0.831443 -0 -0.555611
    outer loop
      vertex 10.7071 5 5.70711
      vertex 10.9239 0 5.38268
      vertex 10.7071 0 5.70711
    endloop
  endfacet
  facet normal -0.555593 0 0.831454
    outer loop
      vertex 10.3827 5 4.07612
      vertex 10.7071 0 4.29289
      vertex 10.7071 5 4.29289
    endloop
  endfacet
  facet normal -0.555593 0 0.831454
    outer loop
      vertex 10.7071 0 4.29289
      vertex 10.3827 5 4.07612
      vertex 10.3827 0 4.07612
    endloop
  endfacet
  facet normal -0.195081 0 0.980787
    outer loop
      vertex 10 5 4
      vertex 10.3827 0 4.07612
      vertex 10.3827 5 4.07612
    endloop
  endfacet
  facet normal -0.195081 0 0.980787
    outer loop
      vertex 10.3827 0 4.07612
      vertex 10 5 4
      vertex 10 0 4
    endloop
  endfacet
  facet normal 0.980785 -0 0.195091
    outer loop
      vertex 9 0 5
      vertex 9.07612 5 4.61732
      vertex 9 5 5
    endloop
  endfacet
  facet normal 0.980785 0 0.195091
    outer loop
      vertex 9.07612 5 4.61732
      vertex 9 0 5
      vertex 9.07612 0 4.61732
    endloop
  endfacet
  facet normal 0.831478 0 -0.555557
    outer loop
      vertex 9.29289 0 5.70711
      vertex 9.07612 5 5.38268
      vertex 9.29289 5 5.70711
    endloop
  endfacet
  facet normal 0.831478 0 -0.555557
    outer loop
      vertex 9.07612 5 5.38268
      vertex 9.29289 0 5.70711
      vertex 9.07612 0 5.38268
    endloop
  endfacet
  facet normal 0.980785 0 -0.195091
    outer loop
      vertex 9.07612 0 5.38268
      vertex 9 5 5
      vertex 9.07612 5 5.38268
    endloop
  endfacet
  facet normal 0.980785 0 -0.195091
    outer loop
      vertex 9 5 5
      vertex 9.07612 0 5.38268
      vertex 9 0 5
    endloop
  endfacet
  facet normal -0.980795 0 -0.195042
    outer loop
      vertex 11 0 5
      vertex 10.9239 5 5.38268
      vertex 11 5 5
    endloop
  endfacet
  facet normal -0.980795 -0 -0.195042
    outer loop
      vertex 10.9239 5 5.38268
      vertex 11 0 5
      vertex 10.9239 0 5.38268
    endloop
  endfacet
  facet normal 0.195091 0 -0.980785
    outer loop
      vertex 9.61732 0 5.92388
      vertex 10 5 6
      vertex 10 0 6
    endloop
  endfacet
  facet normal 0.195091 0 -0.980785
    outer loop
      vertex 10 5 6
      vertex 9.61732 0 5.92388
      vertex 9.61732 5 5.92388
    endloop
  endfacet
  facet normal 0.831478 -0 0.555557
    outer loop
      vertex 9.07612 0 4.61732
      vertex 9.29289 5 4.29289
      vertex 9.07612 5 4.61732
    endloop
  endfacet
  facet normal 0.831478 0 0.555557
    outer loop
      vertex 9.29289 5 4.29289
      vertex 9.07612 0 4.61732
      vertex 9.29289 0 4.29289
    endloop
  endfacet
  facet normal 0.555557 0 -0.831478
    outer loop
      vertex 9.29289 0 5.70711
      vertex 9.61732 5 5.92388
      vertex 9.61732 0 5.92388
    endloop
  endfacet
  facet normal 0.555557 0 -0.831478
    outer loop
      vertex 9.61732 5 5.92388
      vertex 9.29289 0 5.70711
      vertex 9.29289 5 5.70711
    endloop
  endfacet
  facet normal 0.195042 0 -0.980795
    outer loop
      vertex 9.61732 0 15.9239
      vertex 10 5 16
      vertex 10 0 16
    endloop
  endfacet
  facet normal 0.195042 0 -0.980795
    outer loop
      vertex 10 5 16
      vertex 9.61732 0 15.9239
      vertex 9.61732 5 15.9239
    endloop
  endfacet
  facet normal -0.831419 0 -0.555646
    outer loop
      vertex 10.9239 0 15.3827
      vertex 10.7071 5 15.7071
      vertex 10.9239 5 15.3827
    endloop
  endfacet
  facet normal -0.831419 -0 -0.555646
    outer loop
      vertex 10.7071 5 15.7071
      vertex 10.9239 0 15.3827
      vertex 10.7071 0 15.7071
    endloop
  endfacet
  facet normal -0.831419 0 0.555646
    outer loop
      vertex 10.7071 0 14.2929
      vertex 10.9239 5 14.6173
      vertex 10.7071 5 14.2929
    endloop
  endfacet
  facet normal -0.831419 0 0.555646
    outer loop
      vertex 10.9239 5 14.6173
      vertex 10.7071 0 14.2929
      vertex 10.9239 0 14.6173
    endloop
  endfacet
  facet normal -0.980797 0 0.195032
    outer loop
      vertex 10.9239 0 14.6173
      vertex 11 5 15
      vertex 10.9239 5 14.6173
    endloop
  endfacet
  facet normal -0.980797 0 0.195032
    outer loop
      vertex 11 5 15
      vertex 10.9239 0 14.6173
      vertex 11 0 15
    endloop
  endfacet
  facet normal -0.555646 0 0.831419
    outer loop
      vertex 10.3827 5 14.0761
      vertex 10.7071 0 14.2929
      vertex 10.7071 5 14.2929
    endloop
  endfacet
  facet normal -0.555646 0 0.831419
    outer loop
      vertex 10.7071 0 14.2929
      vertex 10.3827 5 14.0761
      vertex 10.3827 0 14.0761
    endloop
  endfacet
  facet normal -0.195032 0 0.980797
    outer loop
      vertex 10 5 14
      vertex 10.3827 0 14.0761
      vertex 10.3827 5 14.0761
    endloop
  endfacet
  facet normal -0.195032 0 0.980797
    outer loop
      vertex 10.3827 0 14.0761
      vertex 10 5 14
      vertex 10 0 14
    endloop
  endfacet
  facet normal 0.980787 0 -0.195081
    outer loop
      vertex 9.07612 0 15.3827
      vertex 9 5 15
      vertex 9.07612 5 15.3827
    endloop
  endfacet
  facet normal 0.980787 0 -0.195081
    outer loop
      vertex 9 5 15
      vertex 9.07612 0 15.3827
      vertex 9 0 15
    endloop
  endfacet
  facet normal -0.555646 0 -0.831419
    outer loop
      vertex 10.3827 0 15.9239
      vertex 10.7071 5 15.7071
      vertex 10.7071 0 15.7071
    endloop
  endfacet
  facet normal -0.555646 0 -0.831419
    outer loop
      vertex 10.7071 5 15.7071
      vertex 10.3827 0 15.9239
      vertex 10.3827 5 15.9239
    endloop
  endfacet
  facet normal 0.831454 -0 0.555593
    outer loop
      vertex 9.07612 0 14.6173
      vertex 9.29289 5 14.2929
      vertex 9.07612 5 14.6173
    endloop
  endfacet
  facet normal 0.831454 0 0.555593
    outer loop
      vertex 9.29289 5 14.2929
      vertex 9.07612 0 14.6173
      vertex 9.29289 0 14.2929
    endloop
  endfacet
  facet normal 0.195042 0 0.980795
    outer loop
      vertex 9.61732 5 14.0761
      vertex 10 0 14
      vertex 10 5 14
    endloop
  endfacet
  facet normal 0.195042 0 0.980795
    outer loop
      vertex 10 0 14
      vertex 9.61732 5 14.0761
      vertex 9.61732 0 14.0761
    endloop
  endfacet
  facet normal 0.555611 0 0.831443
    outer loop
      vertex 9.29289 5 14.2929
      vertex 9.61732 0 14.0761
      vertex 9.61732 5 14.0761
    endloop
  endfacet
  facet normal 0.555611 0 0.831443
    outer loop
      vertex 9.61732 0 14.0761
      vertex 9.29289 5 14.2929
      vertex 9.29289 0 14.2929
    endloop
  endfacet
  facet normal -0.980797 0 -0.195032
    outer loop
      vertex 11 0 15
      vertex 10.9239 5 15.3827
      vertex 11 5 15
    endloop
  endfacet
  facet normal -0.980797 -0 -0.195032
    outer loop
      vertex 10.9239 5 15.3827
      vertex 11 0 15
      vertex 10.9239 0 15.3827
    endloop
  endfacet
  facet normal 0.980787 -0 0.195081
    outer loop
      vertex 9 0 15
      vertex 9.07612 5 14.6173
      vertex 9 5 15
    endloop
  endfacet
  facet normal 0.980787 0 0.195081
    outer loop
      vertex 9.07612 5 14.6173
      vertex 9 0 15
      vertex 9.07612 0 14.6173
    endloop
  endfacet
  facet normal 0.831454 0 -0.555593
    outer loop
      vertex 9.29289 0 15.7071
      vertex 9.07612 5 15.3827
      vertex 9.29289 5 15.7071
    endloop
  endfacet
  facet normal 0.831454 0 -0.555593
    outer loop
      vertex 9.07612 5 15.3827
      vertex 9.29289 0 15.7071
      vertex 9.07612 0 15.3827
    endloop
  endfacet
  facet normal -0.195032 0 -0.980797
    outer loop
      vertex 10 0 16
      vertex 10.3827 5 15.9239
      vertex 10.3827 0 15.9239
    endloop
  endfacet
  facet normal -0.195032 0 -0.980797
    outer loop
      vertex 10.3827 5 15.9239
      vertex 10 0 16
      vertex 10 5 16
    endloop
  endfacet
  facet normal 0.555611 0 -0.831443
    outer loop
      vertex 9.29289 0 15.7071
      vertex 9.61732 5 15.9239
      vertex 9.61732 0 15.9239
    endloop
  endfacet
  facet normal 0.555611 0 -0.831443
    outer loop
      vertex 9.61732 5 15.9239
      vertex 9.29289 0 15.7071
      vertex 9.29289 5 15.7071
    endloop
  endfacet
  facet normal 1 -0 0
    outer loop
      vertex 5 5 20
      vertex 5 15 0
      vertex 5 15 20
    endloop
  endfacet
  facet normal 1 0 0
    outer loop
      vertex 5 15 0
      vertex 5 5 20
      vertex 5 5 0
    endloop
  endfacet
  facet normal -1 0 0
    outer loop
      vertex -10 10 0
      vertex -10 15 20
      vertex -10 15 0
    endloop
  endfacet
  facet normal -1 -0 0
    outer loop
      vertex -10 15 20
      vertex -10 10 0
      vertex -10 10 20
    endloop
  endfacet
  facet normal 0 1 -0
    outer loop
      vertex 5 15 0
      vertex -10 15 20
      vertex 5 15 20
    endloop
  endfacet
  facet normal 0 1 0
    outer loop
      vertex -10 15 20
      vertex 5 15 0
      vertex -10 15 0
    endloop
  endfacet
  facet normal 0 -1 0
    outer loop
      vertex -10 10 0
      vertex 0 10 20
      vertex -10 10 20
    endloop
  endfacet
  facet normal 0 -1 -0
    outer loop
      vertex 0 10 20
      vertex -10 10 0
      vertex 0 10 0
    endloop
  endfacet
endsolid OpenSCAD_Model
