solid OpenSCAD_Model
  facet normal 0.951056 0.309017 0
    outer loop
      vertex 0.518525 0.118321 4
      vertex 0.23205 1 0
      vertex 0.23205 1 4
    endloop
  endfacet
  facet normal 0.951056 0.309017 0
    outer loop
      vertex 0.23205 1 0
      vertex 0.518525 0.118321 4
      vertex 0.518525 0.118321 0
    endloop
  endfacet
  facet normal -0.58778 -0.809021 0
    outer loop
      vertex 2.19558 2.42658 0
      vertex 2.94558 1.88168 4
      vertex 2.19558 2.42658 4
    endloop
  endfacet
  facet normal -0.58778 -0.809021 -0
    outer loop
      vertex 2.94558 1.88168 4
      vertex 2.19558 2.42658 0
      vertex 2.94558 1.88168 0
    endloop
  endfacet
  facet normal -0.951058 -0.309012 0
    outer loop
      vertex 3.23205 1 0
      vertex 2.94558 1.88168 4
      vertex 2.94558 1.88168 0
    endloop
  endfacet
  facet normal -0.951058 -0.309012 0
    outer loop
      vertex 2.94558 1.88168 4
      vertex 3.23205 1 0
      vertex 3.23205 1 4
    endloop
  endfacet
  facet normal 0 -1 0
    outer loop
      vertex 1.26853 2.42658 0
      vertex 2.19558 2.42658 4
      vertex 1.26853 2.42658 4
    endloop
  endfacet
  facet normal 0 -1 -0
    outer loop
      vertex 2.19558 2.42658 4
      vertex 1.26853 2.42658 0
      vertex 2.19558 2.42658 0
    endloop
  endfacet
  facet normal 0 1 -0
    outer loop
      vertex 2.19558 -0.426584 0
      vertex 1.26853 -0.426584 4
      vertex 2.19558 -0.426584 4
    endloop
  endfacet
  facet normal 0 1 0
    outer loop
      vertex 1.26853 -0.426584 4
      vertex 2.19558 -0.426584 0
      vertex 1.26853 -0.426584 0
    endloop
  endfacet
  facet normal -0.951058 0.309012 0
    outer loop
      vertex 2.94558 0.118321 0
      vertex 3.23205 1 4
      vertex 3.23205 1 0
    endloop
  endfacet
  facet normal -0.951058 0.309012 0
    outer loop
      vertex 3.23205 1 4
      vertex 2.94558 0.118321 0
      vertex 2.94558 0.118321 4
    endloop
  endfacet
  facet normal 0.587778 -0.809022 0
    outer loop
      vertex 0.518525 1.88168 0
      vertex 1.26853 2.42658 4
      vertex 0.518525 1.88168 4
    endloop
  endfacet
  facet normal 0.587778 -0.809022 0
    outer loop
      vertex 1.26853 2.42658 4
      vertex 0.518525 1.88168 0
      vertex 1.26853 2.42658 0
    endloop
  endfacet
  facet normal 0.951057 -0.309017 0
    outer loop
      vertex 0.23205 1 4
      vertex 0.518525 1.88168 0
      vertex 0.518525 1.88168 4
    endloop
  endfacet
  facet normal 0.951057 -0.309017 0
    outer loop
      vertex 0.518525 1.88168 0
      vertex 0.23205 1 4
      vertex 0.23205 1 0
    endloop
  endfacet
  facet normal -0.587784 0.809018 0
    outer loop
      vertex 2.94558 0.118321 0
      vertex 2.19558 -0.426584 4
      vertex 2.94558 0.118321 4
    endloop
  endfacet
  facet normal -0.587784 0.809018 0
    outer loop
      vertex 2.19558 -0.426584 4
      vertex 2.94558 0.118321 0
      vertex 2.19558 -0.426584 0
    endloop
  endfacet
  facet normal 0.587781 0.80902 -0
    outer loop
      vertex 1.26853 -0.426584 0
      vertex 0.518525 0.118321 4
      vertex 1.26853 -0.426584 4
    endloop
  endfacet
  facet normal 0.587781 0.80902 0
    outer loop
      vertex 0.518525 0.118321 4
      vertex 1.26853 -0.426584 0
      vertex 0.518525 0.118321 0
    endloop
  endfacet
  facet normal -0.587784 0.809018 0
    outer loop
      vertex 23.4815 0.118321 0
      vertex 22.7315 -0.426584 4
      vertex 23.4815 0.118321 4
    endloop
  endfacet
  facet normal -0.587784 0.809018 0
    outer loop
      vertex 22.7315 -0.426584 4
      vertex 23.4815 0.118321 0
      vertex 22.7315 -0.426584 0
    endloop
  endfacet
  facet normal -0.58778 -0.809021 0
    outer loop
      vertex 22.7315 2.42658 0
      vertex 23.4815 1.88168 4
      vertex 22.7315 2.42658 4
    endloop
  endfacet
  facet normal -0.58778 -0.809021 -0
    outer loop
      vertex 23.4815 1.88168 4
      vertex 22.7315 2.42658 0
      vertex 23.4815 1.88168 0
    endloop
  endfacet
  facet normal -0.95108 -0.308944 0
    outer loop
      vertex 23.7679 1 0
      vertex 23.4815 1.88168 4
      vertex 23.4815 1.88168 0
    endloop
  endfacet
  facet normal -0.95108 -0.308944 0
    outer loop
      vertex 23.4815 1.88168 4
      vertex 23.7679 1 0
      vertex 23.7679 1 4
    endloop
  endfacet
  facet normal 0 1 -0
    outer loop
      vertex 22.7315 -0.426584 0
      vertex 21.8044 -0.426584 4
      vertex 22.7315 -0.426584 4
    endloop
  endfacet
  facet normal 0 1 0
    outer loop
      vertex 21.8044 -0.426584 4
      vertex 22.7315 -0.426584 0
      vertex 21.8044 -0.426584 0
    endloop
  endfacet
  facet normal 0.951049 0.309042 0
    outer loop
      vertex 21.0544 0.118321 4
      vertex 20.7679 1 0
      vertex 20.7679 1 4
    endloop
  endfacet
  facet normal 0.951049 0.309042 0
    outer loop
      vertex 20.7679 1 0
      vertex 21.0544 0.118321 4
      vertex 21.0544 0.118321 0
    endloop
  endfacet
  facet normal 0.951049 -0.309041 0
    outer loop
      vertex 20.7679 1 4
      vertex 21.0544 1.88168 0
      vertex 21.0544 1.88168 4
    endloop
  endfacet
  facet normal 0.951049 -0.309041 0
    outer loop
      vertex 21.0544 1.88168 0
      vertex 20.7679 1 4
      vertex 20.7679 1 0
    endloop
  endfacet
  facet normal -0.95108 0.308944 0
    outer loop
      vertex 23.4815 0.118321 0
      vertex 23.7679 1 4
      vertex 23.7679 1 0
    endloop
  endfacet
  facet normal -0.95108 0.308944 0
    outer loop
      vertex 23.7679 1 4
      vertex 23.4815 0.118321 0
      vertex 23.4815 0.118321 4
    endloop
  endfacet
  facet normal 0 -1 0
    outer loop
      vertex 21.8044 2.42658 0
      vertex 22.7315 2.42658 4
      vertex 21.8044 2.42658 4
    endloop
  endfacet
  facet normal 0 -1 -0
    outer loop
      vertex 22.7315 2.42658 4
      vertex 21.8044 2.42658 0
      vertex 22.7315 2.42658 0
    endloop
  endfacet
  facet normal 0.587784 0.809018 -0
    outer loop
      vertex 21.8044 -0.426584 0
      vertex 21.0544 0.118321 4
      vertex 21.8044 -0.426584 4
    endloop
  endfacet
  facet normal 0.587784 0.809018 0
    outer loop
      vertex 21.0544 0.118321 4
      vertex 21.8044 -0.426584 0
      vertex 21.0544 0.118321 0
    endloop
  endfacet
  facet normal 0.58778 -0.809021 0
    outer loop
      vertex 21.0544 1.88168 0
      vertex 21.8044 2.42658 4
      vertex 21.0544 1.88168 4
    endloop
  endfacet
  facet normal 0.58778 -0.809021 0
    outer loop
      vertex 21.8044 2.42658 4
      vertex 21.0544 1.88168 0
      vertex 21.8044 2.42658 0
    endloop
  endfacet
  facet normal -0.58778 -0.809021 0
    outer loop
      vertex 12.4635 20.2112 0
      vertex 13.2135 19.6663 4
      vertex 12.4635 20.2112 4
    endloop
  endfacet
  facet normal -0.58778 -0.809021 -0
    outer loop
      vertex 13.2135 19.6663 4
      vertex 12.4635 20.2112 0
      vertex 13.2135 19.6663 0
    endloop
  endfacet
  facet normal -0.951051 -0.309035 0
    outer loop
      vertex 13.5 18.7846 0
      vertex 13.2135 19.6663 4
      vertex 13.2135 19.6663 0
    endloop
  endfacet
  facet normal -0.951051 -0.309035 0
    outer loop
      vertex 13.2135 19.6663 4
      vertex 13.5 18.7846 0
      vertex 13.5 18.7846 4
    endloop
  endfacet
  facet normal -0.951051 0.309035 0
    outer loop
      vertex 13.2135 17.9029 0
      vertex 13.5 18.7846 4
      vertex 13.5 18.7846 0
    endloop
  endfacet
  facet normal -0.951051 0.309035 0
    outer loop
      vertex 13.5 18.7846 4
      vertex 13.2135 17.9029 0
      vertex 13.2135 17.9029 4
    endloop
  endfacet
  facet normal 0.951051 -0.309035 0
    outer loop
      vertex 10.5 18.7846 4
      vertex 10.7865 19.6663 0
      vertex 10.7865 19.6663 4
    endloop
  endfacet
  facet normal 0.951051 -0.309035 0
    outer loop
      vertex 10.7865 19.6663 0
      vertex 10.5 18.7846 4
      vertex 10.5 18.7846 0
    endloop
  endfacet
  facet normal -0.58778 0.809021 0
    outer loop
      vertex 13.2135 17.9029 0
      vertex 12.4635 17.358 4
      vertex 13.2135 17.9029 4
    endloop
  endfacet
  facet normal -0.58778 0.809021 0
    outer loop
      vertex 12.4635 17.358 4
      vertex 13.2135 17.9029 0
      vertex 12.4635 17.358 0
    endloop
  endfacet
  facet normal 0 1 -0
    outer loop
      vertex 12.4635 17.358 0
      vertex 11.5365 17.358 4
      vertex 12.4635 17.358 4
    endloop
  endfacet
  facet normal 0 1 0
    outer loop
      vertex 11.5365 17.358 4
      vertex 12.4635 17.358 0
      vertex 11.5365 17.358 0
    endloop
  endfacet
  facet normal 0.58778 0.809021 -0
    outer loop
      vertex 11.5365 17.358 0
      vertex 10.7865 17.9029 4
      vertex 11.5365 17.358 4
    endloop
  endfacet
  facet normal 0.58778 0.809021 0
    outer loop
      vertex 10.7865 17.9029 4
      vertex 11.5365 17.358 0
      vertex 10.7865 17.9029 0
    endloop
  endfacet
  facet normal 0.951051 0.309035 0
    outer loop
      vertex 10.7865 17.9029 4
      vertex 10.5 18.7846 0
      vertex 10.5 18.7846 4
    endloop
  endfacet
  facet normal 0.951051 0.309035 0
    outer loop
      vertex 10.5 18.7846 0
      vertex 10.7865 17.9029 4
      vertex 10.7865 17.9029 0
    endloop
  endfacet
  facet normal 0.58778 -0.809021 0
    outer loop
      vertex 10.7865 19.6663 0
      vertex 11.5365 20.2112 4
      vertex 10.7865 19.6663 4
    endloop
  endfacet
  facet normal 0.58778 -0.809021 0
    outer loop
      vertex 11.5365 20.2112 4
      vertex 10.7865 19.6663 0
      vertex 11.5365 20.2112 0
    endloop
  endfacet
  facet normal 0 -1 0
    outer loop
      vertex 11.5365 20.2112 0
      vertex 12.4635 20.2112 4
      vertex 11.5365 20.2112 4
    endloop
  endfacet
  facet normal 0 -1 -0
    outer loop
      vertex 12.4635 20.2112 4
      vertex 11.5365 20.2112 0
      vertex 12.4635 20.2112 0
    endloop
  endfacet
  facet normal 0.995182 -0.0980439 0
    outer loop
      vertex 28.9039 -0.975451 4
      vertex 29 0 0
      vertex 29 0 4
    endloop
  endfacet
  facet normal 0.995182 -0.0980439 0
    outer loop
      vertex 29 0 0
      vertex 28.9039 -0.975451 4
      vertex 28.9039 -0.975451 0
    endloop
  endfacet
  facet normal -0.95694 0.290285 0
    outer loop
      vertex -4.90393 0.975451 0
      vertex -4.6194 1.91342 4
      vertex -4.6194 1.91342 0
    endloop
  endfacet
  facet normal -0.95694 0.290285 0
    outer loop
      vertex -4.6194 1.91342 4
      vertex -4.90393 0.975451 0
      vertex -4.90393 0.975451 4
    endloop
  endfacet
  facet normal 0.471329 0.881957 -0
    outer loop
      vertex 14.7779 24.942 0
      vertex 13.9134 25.404 4
      vertex 14.7779 24.942 4
    endloop
  endfacet
  facet normal 0.471329 0.881957 0
    outer loop
      vertex 13.9134 25.404 4
      vertex 14.7779 24.942 0
      vertex 13.9134 25.404 0
    endloop
  endfacet
  facet normal 0.290276 0.956943 -0
    outer loop
      vertex 13.9134 25.404 0
      vertex 12.9755 25.6885 4
      vertex 13.9134 25.404 4
    endloop
  endfacet
  facet normal 0.290276 0.956943 0
    outer loop
      vertex 12.9755 25.6885 4
      vertex 13.9134 25.404 0
      vertex 12.9755 25.6885 0
    endloop
  endfacet
  facet normal -0.471351 0.881946 0
    outer loop
      vertex 10.0866 25.404 0
      vertex 9.22215 24.942 4
      vertex 10.0866 25.404 4
    endloop
  endfacet
  facet normal -0.471351 0.881946 0
    outer loop
      vertex 9.22215 24.942 4
      vertex 10.0866 25.404 0
      vertex 9.22215 24.942 0
    endloop
  endfacet
  facet normal 0.881899 0.471438 0
    outer loop
      vertex 28.6194 1.91342 4
      vertex 28.1573 2.77785 0
      vertex 28.1573 2.77785 4
    endloop
  endfacet
  facet normal 0.881899 0.471438 0
    outer loop
      vertex 28.1573 2.77785 0
      vertex 28.6194 1.91342 4
      vertex 28.6194 1.91342 0
    endloop
  endfacet
  facet normal 0 -1 0
    outer loop
      vertex 0 -5 0
      vertex 24 -5 4
      vertex 0 -5 4
    endloop
  endfacet
  facet normal 0 -1 -0
    outer loop
      vertex 24 -5 4
      vertex 0 -5 0
      vertex 24 -5 0
    endloop
  endfacet
  facet normal 0.098039 0.995183 -0
    outer loop
      vertex 12.9755 25.6885 0
      vertex 12 25.7846 4
      vertex 12.9755 25.6885 4
    endloop
  endfacet
  facet normal 0.098039 0.995183 0
    outer loop
      vertex 12 25.7846 4
      vertex 12.9755 25.6885 0
      vertex 12 25.7846 0
    endloop
  endfacet
  facet normal -0.0980136 -0.995185 0
    outer loop
      vertex -0.975451 -4.90393 0
      vertex 0 -5 4
      vertex -0.975451 -4.90393 4
    endloop
  endfacet
  facet normal -0.0980136 -0.995185 -0
    outer loop
      vertex 0 -5 4
      vertex -0.975451 -4.90393 0
      vertex 0 -5 0
    endloop
  endfacet
  facet normal 0.471369 -0.881936 0
    outer loop
      vertex 25.9134 -4.6194 0
      vertex 26.7779 -4.15735 4
      vertex 25.9134 -4.6194 4
    endloop
  endfacet
  facet normal 0.471369 -0.881936 0
    outer loop
      vertex 26.7779 -4.15735 4
      vertex 25.9134 -4.6194 0
      vertex 26.7779 -4.15735 0
    endloop
  endfacet
  facet normal 0.773016 -0.634386 0
    outer loop
      vertex 27.5355 -3.53553 4
      vertex 28.1573 -2.77785 0
      vertex 28.1573 -2.77785 4
    endloop
  endfacet
  facet normal 0.773016 -0.634386 0
    outer loop
      vertex 28.1573 -2.77785 0
      vertex 27.5355 -3.53553 4
      vertex 27.5355 -3.53553 0
    endloop
  endfacet
  facet normal 0.881899 -0.471438 0
    outer loop
      vertex 28.1573 -2.77785 4
      vertex 28.6194 -1.91342 0
      vertex 28.6194 -1.91342 4
    endloop
  endfacet
  facet normal 0.881899 -0.471438 0
    outer loop
      vertex 28.6194 -1.91342 0
      vertex 28.1573 -2.77785 4
      vertex 28.1573 -2.77785 0
    endloop
  endfacet
  facet normal -0.866026 0.499999 0
    outer loop
      vertex -4.15735 2.77785 0
      vertex 7.84265 23.5625 4
      vertex 7.84265 23.5625 0
    endloop
  endfacet
  facet normal -0.866026 0.499999 0
    outer loop
      vertex 7.84265 23.5625 4
      vertex -4.15735 2.77785 0
      vertex -4.15735 2.77785 4
    endloop
  endfacet
  facet normal 0.634487 0.772934 -0
    outer loop
      vertex 15.5355 24.3201 0
      vertex 14.7779 24.942 4
      vertex 15.5355 24.3201 4
    endloop
  endfacet
  facet normal 0.634487 0.772934 0
    outer loop
      vertex 14.7779 24.942 4
      vertex 15.5355 24.3201 0
      vertex 14.7779 24.942 0
    endloop
  endfacet
  facet normal -0.88192 0.471399 0
    outer loop
      vertex -4.6194 1.91342 0
      vertex -4.15735 2.77785 4
      vertex -4.15735 2.77785 0
    endloop
  endfacet
  facet normal -0.88192 0.471399 0
    outer loop
      vertex -4.15735 2.77785 4
      vertex -4.6194 1.91342 0
      vertex -4.6194 1.91342 4
    endloop
  endfacet
  facet normal 0.290304 -0.956934 0
    outer loop
      vertex 24.9755 -4.90393 0
      vertex 25.9134 -4.6194 4
      vertex 24.9755 -4.90393 4
    endloop
  endfacet
  facet normal 0.290304 -0.956934 0
    outer loop
      vertex 25.9134 -4.6194 4
      vertex 24.9755 -4.90393 0
      vertex 25.9134 -4.6194 0
    endloop
  endfacet
  facet normal -0.098039 0.995183 0
    outer loop
      vertex 12 25.7846 0
      vertex 11.0245 25.6885 4
      vertex 12 25.7846 4
    endloop
  endfacet
  facet normal -0.098039 0.995183 0
    outer loop
      vertex 11.0245 25.6885 4
      vertex 12 25.7846 0
      vertex 11.0245 25.6885 0
    endloop
  endfacet
  facet normal -0.772974 0.634438 0
    outer loop
      vertex 7.84265 23.5625 0
      vertex 8.46447 24.3201 4
      vertex 8.46447 24.3201 0
    endloop
  endfacet
  facet normal -0.772974 0.634438 0
    outer loop
      vertex 8.46447 24.3201 4
      vertex 7.84265 23.5625 0
      vertex 7.84265 23.5625 4
    endloop
  endfacet
  facet normal 0.956949 0.290257 0
    outer loop
      vertex 28.9039 0.975451 4
      vertex 28.6194 1.91342 0
      vertex 28.6194 1.91342 4
    endloop
  endfacet
  facet normal 0.956949 0.290257 0
    outer loop
      vertex 28.6194 1.91342 0
      vertex 28.9039 0.975451 4
      vertex 28.9039 0.975451 0
    endloop
  endfacet
  facet normal 0.956949 -0.290257 0
    outer loop
      vertex 28.6194 -1.91342 4
      vertex 28.9039 -0.975451 0
      vertex 28.9039 -0.975451 4
    endloop
  endfacet
  facet normal 0.956949 -0.290257 0
    outer loop
      vertex 28.9039 -0.975451 0
      vertex 28.6194 -1.91342 4
      vertex 28.6194 -1.91342 0
    endloop
  endfacet
  facet normal 0.995182 0.0980439 0
    outer loop
      vertex 29 0 4
      vertex 28.9039 0.975451 0
      vertex 28.9039 0.975451 4
    endloop
  endfacet
  facet normal 0.995182 0.0980439 0
    outer loop
      vertex 28.9039 0.975451 0
      vertex 29 0 4
      vertex 29 0 0
    endloop
  endfacet
  facet normal -0.290276 0.956943 0
    outer loop
      vertex 11.0245 25.6885 0
      vertex 10.0866 25.404 4
      vertex 11.0245 25.6885 4
    endloop
  endfacet
  facet normal -0.290276 0.956943 0
    outer loop
      vertex 10.0866 25.404 4
      vertex 11.0245 25.6885 0
      vertex 10.0866 25.404 0
    endloop
  endfacet
  facet normal -0.634447 0.772966 0
    outer loop
      vertex 9.22215 24.942 0
      vertex 8.46447 24.3201 4
      vertex 9.22215 24.942 4
    endloop
  endfacet
  facet normal -0.634447 0.772966 0
    outer loop
      vertex 8.46447 24.3201 4
      vertex 9.22215 24.942 0
      vertex 8.46447 24.3201 0
    endloop
  endfacet
  facet normal 0.866026 0.499999 0
    outer loop
      vertex 28.1573 2.77785 4
      vertex 16.1573 23.5625 0
      vertex 16.1573 23.5625 4
    endloop
  endfacet
  facet normal 0.866026 0.499999 0
    outer loop
      vertex 16.1573 23.5625 0
      vertex 28.1573 2.77785 4
      vertex 28.1573 2.77785 0
    endloop
  endfacet
  facet normal -0.88192 -0.471399 0
    outer loop
      vertex -4.15735 -2.77785 0
      vertex -4.6194 -1.91342 4
      vertex -4.6194 -1.91342 0
    endloop
  endfacet
  facet normal -0.88192 -0.471399 0
    outer loop
      vertex -4.6194 -1.91342 4
      vertex -4.15735 -2.77785 0
      vertex -4.15735 -2.77785 4
    endloop
  endfacet
  facet normal 0.0980087 -0.995186 0
    outer loop
      vertex 24 -5 0
      vertex 24.9755 -4.90393 4
      vertex 24 -5 4
    endloop
  endfacet
  facet normal 0.0980087 -0.995186 0
    outer loop
      vertex 24.9755 -4.90393 4
      vertex 24 -5 0
      vertex 24.9755 -4.90393 0
    endloop
  endfacet
  facet normal -0.634398 -0.773006 0
    outer loop
      vertex -3.53553 -3.53553 0
      vertex -2.77785 -4.15735 4
      vertex -3.53553 -3.53553 4
    endloop
  endfacet
  facet normal -0.634398 -0.773006 -0
    outer loop
      vertex -2.77785 -4.15735 4
      vertex -3.53553 -3.53553 0
      vertex -2.77785 -4.15735 0
    endloop
  endfacet
  facet normal -0.995185 0.0980136 0
    outer loop
      vertex -5 0 0
      vertex -4.90393 0.975451 4
      vertex -4.90393 0.975451 0
    endloop
  endfacet
  facet normal -0.995185 0.0980136 0
    outer loop
      vertex -4.90393 0.975451 4
      vertex -5 0 0
      vertex -5 0 4
    endloop
  endfacet
  facet normal 0.772984 0.634426 0
    outer loop
      vertex 16.1573 23.5625 4
      vertex 15.5355 24.3201 0
      vertex 15.5355 24.3201 4
    endloop
  endfacet
  facet normal 0.772984 0.634426 0
    outer loop
      vertex 15.5355 24.3201 0
      vertex 16.1573 23.5625 4
      vertex 16.1573 23.5625 0
    endloop
  endfacet
  facet normal -0.995185 -0.0980136 0
    outer loop
      vertex -4.90393 -0.975451 0
      vertex -5 0 4
      vertex -5 0 0
    endloop
  endfacet
  facet normal -0.995185 -0.0980136 0
    outer loop
      vertex -5 0 4
      vertex -4.90393 -0.975451 0
      vertex -4.90393 -0.975451 4
    endloop
  endfacet
  facet normal -0.290285 -0.95694 0
    outer loop
      vertex -1.91342 -4.6194 0
      vertex -0.975451 -4.90393 4
      vertex -1.91342 -4.6194 4
    endloop
  endfacet
  facet normal -0.290285 -0.95694 -0
    outer loop
      vertex -0.975451 -4.90393 4
      vertex -1.91342 -4.6194 0
      vertex -0.975451 -4.90393 0
    endloop
  endfacet
  facet normal -0.95694 -0.290285 0
    outer loop
      vertex -4.6194 -1.91342 0
      vertex -4.90393 -0.975451 4
      vertex -4.90393 -0.975451 0
    endloop
  endfacet
  facet normal -0.95694 -0.290285 0
    outer loop
      vertex -4.90393 -0.975451 4
      vertex -4.6194 -1.91342 0
      vertex -4.6194 -1.91342 4
    endloop
  endfacet
  facet normal -0.471399 -0.88192 0
    outer loop
      vertex -2.77785 -4.15735 0
      vertex -1.91342 -4.6194 4
      vertex -2.77785 -4.15735 4
    endloop
  endfacet
  facet normal -0.471399 -0.88192 -0
    outer loop
      vertex -1.91342 -4.6194 4
      vertex -2.77785 -4.15735 0
      vertex -1.91342 -4.6194 0
    endloop
  endfacet
  facet normal 0 0 1
    outer loop
      vertex 21.0544 1.88168 4
      vertex 2.94558 1.88168 4
      vertex 3.23205 1 4
    endloop
  endfacet
  facet normal 0 0 1
    outer loop
      vertex 10.5 18.7846 4
      vertex 2.19558 2.42658 4
      vertex 2.94558 1.88168 4
    endloop
  endfacet
  facet normal 0 0 1
    outer loop
      vertex 10.5 18.7846 4
      vertex 1.26853 2.42658 4
      vertex 2.19558 2.42658 4
    endloop
  endfacet
  facet normal 0 0 1
    outer loop
      vertex 10.5 18.7846 4
      vertex -4.15735 2.77785 4
      vertex 1.26853 2.42658 4
    endloop
  endfacet
  facet normal 0 0 1
    outer loop
      vertex 1.26853 -0.426584 4
      vertex -0.975451 -4.90393 4
      vertex 0 -5 4
    endloop
  endfacet
  facet normal 0 0 1
    outer loop
      vertex 0.518525 0.118321 4
      vertex -1.91342 -4.6194 4
      vertex -0.975451 -4.90393 4
    endloop
  endfacet
  facet normal 0 0 1
    outer loop
      vertex -4.15735 2.77785 4
      vertex 0.23205 1 4
      vertex 0.518525 1.88168 4
    endloop
  endfacet
  facet normal 0 0 1
    outer loop
      vertex 1.26853 2.42658 4
      vertex -4.15735 2.77785 4
      vertex 0.518525 1.88168 4
    endloop
  endfacet
  facet normal 0 0 1
    outer loop
      vertex 0.23205 1 4
      vertex -4.15735 2.77785 4
      vertex -4.6194 1.91342 4
    endloop
  endfacet
  facet normal 0 0 1
    outer loop
      vertex 0.518525 0.118321 4
      vertex -2.77785 -4.15735 4
      vertex -1.91342 -4.6194 4
    endloop
  endfacet
  facet normal 0 0 1
    outer loop
      vertex 0.518525 0.118321 4
      vertex -3.53553 -3.53553 4
      vertex -2.77785 -4.15735 4
    endloop
  endfacet
  facet normal 0 0 1
    outer loop
      vertex 0.518525 0.118321 4
      vertex -4.15735 -2.77785 4
      vertex -3.53553 -3.53553 4
    endloop
  endfacet
  facet normal 0 0 1
    outer loop
      vertex 0.23205 1 4
      vertex -4.6194 1.91342 4
      vertex -4.90393 0.975451 4
    endloop
  endfacet
  facet normal 0 0 1
    outer loop
      vertex 0.518525 0.118321 4
      vertex -4.6194 -1.91342 4
      vertex -4.15735 -2.77785 4
    endloop
  endfacet
  facet normal 0 0 1
    outer loop
      vertex 0.23205 1 4
      vertex -4.90393 0.975451 4
      vertex -5 0 4
    endloop
  endfacet
  facet normal 0 0 1
    outer loop
      vertex 0.518525 0.118321 4
      vertex -4.90393 -0.975451 4
      vertex -4.6194 -1.91342 4
    endloop
  endfacet
  facet normal 0 0 1
    outer loop
      vertex 0.23205 1 4
      vertex -5 0 4
      vertex -4.90393 -0.975451 4
    endloop
  endfacet
  facet normal 0 0 1
    outer loop
      vertex 16.1573 23.5625 4
      vertex 13.2135 19.6663 4
      vertex 13.5 18.7846 4
    endloop
  endfacet
  facet normal 0 0 1
    outer loop
      vertex 12.4635 20.2112 4
      vertex 13.9134 25.404 4
      vertex 12.9755 25.6885 4
    endloop
  endfacet
  facet normal 0 0 1
    outer loop
      vertex 14.7779 24.942 4
      vertex 12.4635 20.2112 4
      vertex 13.2135 19.6663 4
    endloop
  endfacet
  facet normal 0 0 1
    outer loop
      vertex 12 25.7846 4
      vertex 12.4635 20.2112 4
      vertex 12.9755 25.6885 4
    endloop
  endfacet
  facet normal 0 0 1
    outer loop
      vertex 12 25.7846 4
      vertex 11.5365 20.2112 4
      vertex 12.4635 20.2112 4
    endloop
  endfacet
  facet normal -0 0 1
    outer loop
      vertex 11.0245 25.6885 4
      vertex 11.5365 20.2112 4
      vertex 12 25.7846 4
    endloop
  endfacet
  facet normal -0 0 1
    outer loop
      vertex 10.0866 25.404 4
      vertex 11.5365 20.2112 4
      vertex 11.0245 25.6885 4
    endloop
  endfacet
  facet normal -0 0 1
    outer loop
      vertex 9.22215 24.942 4
      vertex 11.5365 20.2112 4
      vertex 10.0866 25.404 4
    endloop
  endfacet
  facet normal -0 0 1
    outer loop
      vertex 8.46447 24.3201 4
      vertex 11.5365 20.2112 4
      vertex 9.22215 24.942 4
    endloop
  endfacet
  facet normal 0 0 1
    outer loop
      vertex 23.7679 1 4
      vertex 29 0 4
      vertex 28.9039 0.975451 4
    endloop
  endfacet
  facet normal -0 0 1
    outer loop
      vertex 23.7679 1 4
      vertex 28.9039 0.975451 4
      vertex 28.6194 1.91342 4
    endloop
  endfacet
  facet normal 0 0 1
    outer loop
      vertex 29 0 4
      vertex 23.7679 1 4
      vertex 28.9039 -0.975451 4
    endloop
  endfacet
  facet normal 0 0 1
    outer loop
      vertex 23.7679 1 4
      vertex 28.6194 1.91342 4
      vertex 28.1573 2.77785 4
    endloop
  endfacet
  facet normal -0 0 1
    outer loop
      vertex 23.4815 0.118321 4
      vertex 28.9039 -0.975451 4
      vertex 23.7679 1 4
    endloop
  endfacet
  facet normal 0 0 1
    outer loop
      vertex 28.9039 -0.975451 4
      vertex 23.4815 0.118321 4
      vertex 28.6194 -1.91342 4
    endloop
  endfacet
  facet normal 0 0 1
    outer loop
      vertex 28.6194 -1.91342 4
      vertex 23.4815 0.118321 4
      vertex 28.1573 -2.77785 4
    endloop
  endfacet
  facet normal 0 0 1
    outer loop
      vertex 27.5355 -3.53553 4
      vertex 23.4815 0.118321 4
      vertex 26.7779 -4.15735 4
    endloop
  endfacet
  facet normal 0 0 1
    outer loop
      vertex 26.7779 -4.15735 4
      vertex 23.4815 0.118321 4
      vertex 25.9134 -4.6194 4
    endloop
  endfacet
  facet normal 0 0 1
    outer loop
      vertex 25.9134 -4.6194 4
      vertex 23.4815 0.118321 4
      vertex 24.9755 -4.90393 4
    endloop
  endfacet
  facet normal 0 0 1
    outer loop
      vertex 28.1573 -2.77785 4
      vertex 23.4815 0.118321 4
      vertex 27.5355 -3.53553 4
    endloop
  endfacet
  facet normal 0 0 1
    outer loop
      vertex 28.1573 2.77785 4
      vertex 23.4815 1.88168 4
      vertex 23.7679 1 4
    endloop
  endfacet
  facet normal 0 0 1
    outer loop
      vertex 28.1573 2.77785 4
      vertex 22.7315 2.42658 4
      vertex 23.4815 1.88168 4
    endloop
  endfacet
  facet normal 0 0 1
    outer loop
      vertex 13.2135 17.9029 4
      vertex 22.7315 2.42658 4
      vertex 28.1573 2.77785 4
    endloop
  endfacet
  facet normal 0 0 1
    outer loop
      vertex 22.7315 2.42658 4
      vertex 13.2135 17.9029 4
      vertex 21.8044 2.42658 4
    endloop
  endfacet
  facet normal -0 0 1
    outer loop
      vertex 13.2135 17.9029 4
      vertex 28.1573 2.77785 4
      vertex 13.5 18.7846 4
    endloop
  endfacet
  facet normal -0 0 1
    outer loop
      vertex 13.5 18.7846 4
      vertex 28.1573 2.77785 4
      vertex 16.1573 23.5625 4
    endloop
  endfacet
  facet normal -0 0 1
    outer loop
      vertex 22.7315 -0.426584 4
      vertex 24.9755 -4.90393 4
      vertex 23.4815 0.118321 4
    endloop
  endfacet
  facet normal 0 0 1
    outer loop
      vertex 24.9755 -4.90393 4
      vertex 22.7315 -0.426584 4
      vertex 24 -5 4
    endloop
  endfacet
  facet normal -0 0 1
    outer loop
      vertex 21.8044 -0.426584 4
      vertex 24 -5 4
      vertex 22.7315 -0.426584 4
    endloop
  endfacet
  facet normal 0 0 1
    outer loop
      vertex 21.0544 0.118321 4
      vertex 24 -5 4
      vertex 21.8044 -0.426584 4
    endloop
  endfacet
  facet normal 0 0 1
    outer loop
      vertex 13.2135 19.6663 4
      vertex 16.1573 23.5625 4
      vertex 15.5355 24.3201 4
    endloop
  endfacet
  facet normal 0 0 1
    outer loop
      vertex 13.2135 19.6663 4
      vertex 15.5355 24.3201 4
      vertex 14.7779 24.942 4
    endloop
  endfacet
  facet normal 0 0 1
    outer loop
      vertex 12.4635 20.2112 4
      vertex 14.7779 24.942 4
      vertex 13.9134 25.404 4
    endloop
  endfacet
  facet normal -0 0 1
    outer loop
      vertex 12.4635 17.358 4
      vertex 21.8044 2.42658 4
      vertex 13.2135 17.9029 4
    endloop
  endfacet
  facet normal 0 0 1
    outer loop
      vertex 21.8044 2.42658 4
      vertex 12.4635 17.358 4
      vertex 21.0544 1.88168 4
    endloop
  endfacet
  facet normal -0 0 1
    outer loop
      vertex 11.5365 17.358 4
      vertex 21.0544 1.88168 4
      vertex 12.4635 17.358 4
    endloop
  endfacet
  facet normal 0 0 1
    outer loop
      vertex 21.0544 1.88168 4
      vertex 3.23205 1 4
      vertex 20.7679 1 4
    endloop
  endfacet
  facet normal 0 0 1
    outer loop
      vertex 2.94558 1.88168 4
      vertex 21.0544 1.88168 4
      vertex 11.5365 17.358 4
    endloop
  endfacet
  facet normal 0 0 1
    outer loop
      vertex 2.94558 1.88168 4
      vertex 11.5365 17.358 4
      vertex 10.7865 17.9029 4
    endloop
  endfacet
  facet normal 0 0 1
    outer loop
      vertex 20.7679 1 4
      vertex 3.23205 1 4
      vertex 21.0544 0.118321 4
    endloop
  endfacet
  facet normal -0 0 1
    outer loop
      vertex 7.84265 23.5625 4
      vertex 11.5365 20.2112 4
      vertex 8.46447 24.3201 4
    endloop
  endfacet
  facet normal 0 0 1
    outer loop
      vertex 11.5365 20.2112 4
      vertex 7.84265 23.5625 4
      vertex 10.7865 19.6663 4
    endloop
  endfacet
  facet normal 0 0 1
    outer loop
      vertex 10.7865 19.6663 4
      vertex 7.84265 23.5625 4
      vertex 10.5 18.7846 4
    endloop
  endfacet
  facet normal 0 0 1
    outer loop
      vertex -4.15735 2.77785 4
      vertex 10.5 18.7846 4
      vertex 7.84265 23.5625 4
    endloop
  endfacet
  facet normal 0 0 1
    outer loop
      vertex 2.94558 1.88168 4
      vertex 10.7865 17.9029 4
      vertex 10.5 18.7846 4
    endloop
  endfacet
  facet normal 0 0 1
    outer loop
      vertex 2.94558 0.118321 4
      vertex 21.0544 0.118321 4
      vertex 3.23205 1 4
    endloop
  endfacet
  facet normal 0 0 1
    outer loop
      vertex 21.0544 0.118321 4
      vertex 2.94558 0.118321 4
      vertex 24 -5 4
    endloop
  endfacet
  facet normal 0 0 1
    outer loop
      vertex 0 -5 4
      vertex 2.94558 0.118321 4
      vertex 2.19558 -0.426584 4
    endloop
  endfacet
  facet normal 0 0 1
    outer loop
      vertex 0 -5 4
      vertex 2.19558 -0.426584 4
      vertex 1.26853 -0.426584 4
    endloop
  endfacet
  facet normal 0 0 1
    outer loop
      vertex 2.94558 0.118321 4
      vertex 0 -5 4
      vertex 24 -5 4
    endloop
  endfacet
  facet normal 0 0 1
    outer loop
      vertex -0.975451 -4.90393 4
      vertex 1.26853 -0.426584 4
      vertex 0.518525 0.118321 4
    endloop
  endfacet
  facet normal 0 0 1
    outer loop
      vertex -4.90393 -0.975451 4
      vertex 0.518525 0.118321 4
      vertex 0.23205 1 4
    endloop
  endfacet
  facet normal 0 0 -1
    outer loop
      vertex 28.9039 -0.975451 0
      vertex 23.4815 0.118321 0
      vertex 23.7679 1 0
    endloop
  endfacet
  facet normal 0 0 -1
    outer loop
      vertex 24.9755 -4.90393 0
      vertex 22.7315 -0.426584 0
      vertex 23.4815 0.118321 0
    endloop
  endfacet
  facet normal 0 0 -1
    outer loop
      vertex 24 -5 0
      vertex 21.8044 -0.426584 0
      vertex 22.7315 -0.426584 0
    endloop
  endfacet
  facet normal 0 0 -1
    outer loop
      vertex 24 -5 0
      vertex 21.0544 0.118321 0
      vertex 21.8044 -0.426584 0
    endloop
  endfacet
  facet normal 0 0 -1
    outer loop
      vertex 28.1573 2.77785 0
      vertex 13.5 18.7846 0
      vertex 16.1573 23.5625 0
    endloop
  endfacet
  facet normal 0 0 -1
    outer loop
      vertex 13.2135 19.6663 0
      vertex 16.1573 23.5625 0
      vertex 13.5 18.7846 0
    endloop
  endfacet
  facet normal 0 0 -1
    outer loop
      vertex 12.4635 20.2112 0
      vertex 16.1573 23.5625 0
      vertex 13.2135 19.6663 0
    endloop
  endfacet
  facet normal -0 0 -1
    outer loop
      vertex 16.1573 23.5625 0
      vertex 12.4635 20.2112 0
      vertex 15.5355 24.3201 0
    endloop
  endfacet
  facet normal 0 0 -1
    outer loop
      vertex 3.23205 1 0
      vertex 20.7679 1 0
      vertex 21.0544 0.118321 0
    endloop
  endfacet
  facet normal 0 0 -1
    outer loop
      vertex 20.7679 1 0
      vertex 13.2135 17.9029 0
      vertex 13.5 18.7846 0
    endloop
  endfacet
  facet normal 0 0 -1
    outer loop
      vertex 20.7679 1 0
      vertex 12.4635 17.358 0
      vertex 13.2135 17.9029 0
    endloop
  endfacet
  facet normal 0 0 -1
    outer loop
      vertex 20.7679 1 0
      vertex 2.94558 1.88168 0
      vertex 12.4635 17.358 0
    endloop
  endfacet
  facet normal -0 0 -1
    outer loop
      vertex 12.4635 17.358 0
      vertex 2.94558 1.88168 0
      vertex 11.5365 17.358 0
    endloop
  endfacet
  facet normal 0 0 -1
    outer loop
      vertex 2.94558 0.118321 0
      vertex 21.0544 0.118321 0
      vertex 24 -5 0
    endloop
  endfacet
  facet normal 0 0 -1
    outer loop
      vertex 11.5365 20.2112 0
      vertex 9.22215 24.942 0
      vertex 10.0866 25.404 0
    endloop
  endfacet
  facet normal 0 0 -1
    outer loop
      vertex 10.7865 19.6663 0
      vertex 8.46447 24.3201 0
      vertex 9.22215 24.942 0
    endloop
  endfacet
  facet normal 0 0 -1
    outer loop
      vertex -4.15735 2.77785 0
      vertex 10.5 18.7846 0
      vertex 10.7865 17.9029 0
    endloop
  endfacet
  facet normal 0 0 -1
    outer loop
      vertex 10.7865 19.6663 0
      vertex 7.84265 23.5625 0
      vertex 8.46447 24.3201 0
    endloop
  endfacet
  facet normal 0 0 -1
    outer loop
      vertex 2.19558 2.42658 0
      vertex 11.5365 17.358 0
      vertex 2.94558 1.88168 0
    endloop
  endfacet
  facet normal 0 0 -1
    outer loop
      vertex 20.7679 1 0
      vertex 3.23205 1 0
      vertex 2.94558 1.88168 0
    endloop
  endfacet
  facet normal 0 0 -1
    outer loop
      vertex 21.0544 0.118321 0
      vertex 2.94558 0.118321 0
      vertex 3.23205 1 0
    endloop
  endfacet
  facet normal 0 0 -1
    outer loop
      vertex 0 -5 0
      vertex 2.94558 0.118321 0
      vertex 24 -5 0
    endloop
  endfacet
  facet normal 0 0 -1
    outer loop
      vertex 2.94558 0.118321 0
      vertex 0 -5 0
      vertex 2.19558 -0.426584 0
    endloop
  endfacet
  facet normal -0 0 -1
    outer loop
      vertex 1.26853 -0.426584 0
      vertex -0.975451 -4.90393 0
      vertex 0.518525 0.118321 0
    endloop
  endfacet
  facet normal 0 0 -1
    outer loop
      vertex -0.975451 -4.90393 0
      vertex 1.26853 -0.426584 0
      vertex 0 -5 0
    endloop
  endfacet
  facet normal -0 0 -1
    outer loop
      vertex 2.19558 -0.426584 0
      vertex 0 -5 0
      vertex 1.26853 -0.426584 0
    endloop
  endfacet
  facet normal 0 0 -1
    outer loop
      vertex 23.7679 1 0
      vertex 29 0 0
      vertex 28.9039 -0.975451 0
    endloop
  endfacet
  facet normal 0 0 -1
    outer loop
      vertex 23.4815 0.118321 0
      vertex 28.9039 -0.975451 0
      vertex 28.6194 -1.91342 0
    endloop
  endfacet
  facet normal 0 0 -1
    outer loop
      vertex 29 0 0
      vertex 23.7679 1 0
      vertex 28.9039 0.975451 0
    endloop
  endfacet
  facet normal 0 0 -1
    outer loop
      vertex 23.4815 0.118321 0
      vertex 28.6194 -1.91342 0
      vertex 28.1573 -2.77785 0
    endloop
  endfacet
  facet normal 0 0 -1
    outer loop
      vertex 28.9039 0.975451 0
      vertex 23.7679 1 0
      vertex 28.6194 1.91342 0
    endloop
  endfacet
  facet normal 0 0 -1
    outer loop
      vertex 23.4815 0.118321 0
      vertex 28.1573 -2.77785 0
      vertex 27.5355 -3.53553 0
    endloop
  endfacet
  facet normal 0 0 -1
    outer loop
      vertex 23.4815 0.118321 0
      vertex 27.5355 -3.53553 0
      vertex 26.7779 -4.15735 0
    endloop
  endfacet
  facet normal 0 0 -1
    outer loop
      vertex 23.4815 0.118321 0
      vertex 26.7779 -4.15735 0
      vertex 25.9134 -4.6194 0
    endloop
  endfacet
  facet normal 0 0 -1
    outer loop
      vertex 23.4815 0.118321 0
      vertex 25.9134 -4.6194 0
      vertex 24.9755 -4.90393 0
    endloop
  endfacet
  facet normal 0 0 -1
    outer loop
      vertex 22.7315 -0.426584 0
      vertex 24.9755 -4.90393 0
      vertex 24 -5 0
    endloop
  endfacet
  facet normal -0 0 -1
    outer loop
      vertex 28.6194 1.91342 0
      vertex 23.7679 1 0
      vertex 28.1573 2.77785 0
    endloop
  endfacet
  facet normal 0 0 -1
    outer loop
      vertex 23.4815 1.88168 0
      vertex 28.1573 2.77785 0
      vertex 23.7679 1 0
    endloop
  endfacet
  facet normal 0 0 -1
    outer loop
      vertex 22.7315 2.42658 0
      vertex 28.1573 2.77785 0
      vertex 23.4815 1.88168 0
    endloop
  endfacet
  facet normal 0 0 -1
    outer loop
      vertex 13.5 18.7846 0
      vertex 22.7315 2.42658 0
      vertex 21.8044 2.42658 0
    endloop
  endfacet
  facet normal 0 0 -1
    outer loop
      vertex 13.5 18.7846 0
      vertex 28.1573 2.77785 0
      vertex 22.7315 2.42658 0
    endloop
  endfacet
  facet normal 0 0 -1
    outer loop
      vertex 13.5 18.7846 0
      vertex 21.8044 2.42658 0
      vertex 21.0544 1.88168 0
    endloop
  endfacet
  facet normal 0 0 -1
    outer loop
      vertex 13.5 18.7846 0
      vertex 21.0544 1.88168 0
      vertex 20.7679 1 0
    endloop
  endfacet
  facet normal -0 0 -1
    outer loop
      vertex 15.5355 24.3201 0
      vertex 12.4635 20.2112 0
      vertex 14.7779 24.942 0
    endloop
  endfacet
  facet normal -0 0 -1
    outer loop
      vertex 14.7779 24.942 0
      vertex 12.4635 20.2112 0
      vertex 13.9134 25.404 0
    endloop
  endfacet
  facet normal -0 0 -1
    outer loop
      vertex 13.9134 25.404 0
      vertex 12.4635 20.2112 0
      vertex 12.9755 25.6885 0
    endloop
  endfacet
  facet normal 0 0 -1
    outer loop
      vertex 12.4635 20.2112 0
      vertex 12 25.7846 0
      vertex 12.9755 25.6885 0
    endloop
  endfacet
  facet normal 0 0 -1
    outer loop
      vertex 11.5365 20.2112 0
      vertex 12 25.7846 0
      vertex 12.4635 20.2112 0
    endloop
  endfacet
  facet normal 0 0 -1
    outer loop
      vertex 11.5365 20.2112 0
      vertex 11.0245 25.6885 0
      vertex 12 25.7846 0
    endloop
  endfacet
  facet normal 0 0 -1
    outer loop
      vertex 9.22215 24.942 0
      vertex 11.5365 20.2112 0
      vertex 10.7865 19.6663 0
    endloop
  endfacet
  facet normal 0 0 -1
    outer loop
      vertex 7.84265 23.5625 0
      vertex 10.7865 19.6663 0
      vertex 10.5 18.7846 0
    endloop
  endfacet
  facet normal 0 0 -1
    outer loop
      vertex 11.5365 20.2112 0
      vertex 10.0866 25.404 0
      vertex 11.0245 25.6885 0
    endloop
  endfacet
  facet normal -0 0 -1
    outer loop
      vertex 11.5365 17.358 0
      vertex 2.19558 2.42658 0
      vertex 10.7865 17.9029 0
    endloop
  endfacet
  facet normal 0 0 -1
    outer loop
      vertex 1.26853 2.42658 0
      vertex 10.7865 17.9029 0
      vertex 2.19558 2.42658 0
    endloop
  endfacet
  facet normal 0 0 -1
    outer loop
      vertex -4.15735 2.77785 0
      vertex 10.7865 17.9029 0
      vertex 1.26853 2.42658 0
    endloop
  endfacet
  facet normal 0 0 -1
    outer loop
      vertex -4.15735 2.77785 0
      vertex 1.26853 2.42658 0
      vertex 0.518525 1.88168 0
    endloop
  endfacet
  facet normal 0 0 -1
    outer loop
      vertex -1.91342 -4.6194 0
      vertex 0.518525 0.118321 0
      vertex -0.975451 -4.90393 0
    endloop
  endfacet
  facet normal 0 0 -1
    outer loop
      vertex -2.77785 -4.15735 0
      vertex 0.518525 0.118321 0
      vertex -1.91342 -4.6194 0
    endloop
  endfacet
  facet normal 0 0 -1
    outer loop
      vertex -3.53553 -3.53553 0
      vertex 0.518525 0.118321 0
      vertex -2.77785 -4.15735 0
    endloop
  endfacet
  facet normal 0 0 -1
    outer loop
      vertex -4.15735 -2.77785 0
      vertex 0.518525 0.118321 0
      vertex -3.53553 -3.53553 0
    endloop
  endfacet
  facet normal 0 0 -1
    outer loop
      vertex -4.6194 -1.91342 0
      vertex 0.518525 0.118321 0
      vertex -4.15735 -2.77785 0
    endloop
  endfacet
  facet normal 0 0 -1
    outer loop
      vertex -4.90393 -0.975451 0
      vertex 0.518525 0.118321 0
      vertex -4.6194 -1.91342 0
    endloop
  endfacet
  facet normal -0 0 -1
    outer loop
      vertex 0.518525 0.118321 0
      vertex -4.90393 -0.975451 0
      vertex 0.23205 1 0
    endloop
  endfacet
  facet normal -0 0 -1
    outer loop
      vertex 10.5 18.7846 0
      vertex -4.15735 2.77785 0
      vertex 7.84265 23.5625 0
    endloop
  endfacet
  facet normal 0 0 -1
    outer loop
      vertex -5 0 0
      vertex 0.23205 1 0
      vertex -4.90393 -0.975451 0
    endloop
  endfacet
  facet normal 0 0 -1
    outer loop
      vertex 0.23205 1 0
      vertex -4.15735 2.77785 0
      vertex 0.518525 1.88168 0
    endloop
  endfacet
  facet normal 0 -0 -1
    outer loop
      vertex -4.90393 0.975451 0
      vertex 0.23205 1 0
      vertex -5 0 0
    endloop
  endfacet
  facet normal 0 -0 -1
    outer loop
      vertex -4.15735 2.77785 0
      vertex 0.23205 1 0
      vertex -4.6194 1.91342 0
    endloop
  endfacet
  facet normal 0 -0 -1
    outer loop
      vertex -4.6194 1.91342 0
      vertex 0.23205 1 0
      vertex -4.90393 0.975451 0
    endloop
  endfacet
  facet normal -0.773006 -0.634398 0
    outer loop
      vertex -3.53553 -3.53553 0
      vertex -4.15735 -2.77785 4
      vertex -4.15735 -2.77785 0
    endloop
  endfacet
  facet normal -0.773006 -0.634398 0
    outer loop
      vertex -4.15735 -2.77785 4
      vertex -3.53553 -3.53553 0
      vertex -3.53553 -3.53553 4
    endloop
  endfacet
  facet normal 0.634438 -0.772974 0
    outer loop
      vertex 26.7779 -4.15735 0
      vertex 27.5355 -3.53553 4
      vertex 26.7779 -4.15735 4
    endloop
  endfacet
  facet normal 0.634438 -0.772974 0
    outer loop
      vertex 27.5355 -3.53553 4
      vertex 26.7779 -4.15735 0
      vertex 27.5355 -3.53553 0
    endloop
  endfacet
endsolid OpenSCAD_Model
